<svg width="20px" height="20px" class="log-icon-red" viewBox="0 0 400 400" version="1.1" xmlns="http://www.w3.org/2000/svg" xmlns:xlink="http://www.w3.org/1999/xlink" fill="#000000">
    <g stroke-width="0"/>
    <g stroke-linecap="round" stroke-linejoin="round"/>
    <g>
        <g stroke="none" stroke-width="1" fill="none" fill-rule="evenodd">
            <g fill="#B71234" transform="translate(85.573 42.667)">
                <path d="M184.647 0H1.315v183.332h33.333v-150h136.167l63.833 63.833v86.167h33.333v-100L184.647 0ZM0 316.668V216.688h22.508v82.34h42.97v17.64H0ZM119.665 214.925c15.71 0 27.753 4.985 36.125 14.957 8.043 9.547 12.065 21.825 12.065 36.83 0 16.418 -4.75 29.468 -14.252 39.16 -8.185 8.373 -19.498 12.557 -33.938 12.557 -15.71 0 -27.753 -4.985 -36.125 -14.957 -8.043 -9.547 -12.065 -22.015 -12.065 -37.395 0 -16.087 4.75 -28.975 14.252 -38.665 8.23 -8.325 19.543 -12.488 33.938 -12.488Zm-0.07 17.64c-8.137 0 -14.418 3.388 -18.84 10.16 -3.998 6.115 -5.998 13.97 -5.998 23.565 0 11.102 2.375 19.707 7.125 25.825 4.467 5.785 10.395 8.678 17.78 8.678 8.09 0 14.395 -3.41 18.91 -10.23 3.998 -6.02 5.998 -13.97 5.998 -23.848 0 -10.865 -2.375 -19.355 -7.125 -25.47 -4.467 -5.785 -10.42 -8.678 -17.852 -8.678Zm149.085 28.152v51.013c-5.737 1.93 -9.782 3.2 -12.135 3.81 -7.29 1.93 -15.123 2.893 -23.495 2.893 -16.462 0 -28.998 -4.14 -37.608 -12.417 -9.55 -9.125 -14.322 -21.85 -14.322 -38.17 0 -18.767 5.928 -32.927 17.78 -42.475 8.607 -6.96 20.227 -10.442 34.855 -10.442 12.512 0 24.155 2.28 34.925 6.843l-7.69 17.567c-5.08 -2.54 -9.525 -4.315 -13.335 -5.327 -3.81 -1.01 -7.995 -1.518 -12.557 -1.518 -10.913 0 -18.955 3.55 -24.13 10.655 -4.375 6.02 -6.563 13.945 -6.563 23.777 0 11.807 3.292 20.697 9.877 26.67 5.268 4.798 11.807 7.197 19.615 7.197 4.563 0 8.89 -0.775 12.982 -2.328v-20.11h-17.215v-17.637h39.017Z"/>
            </g>
        </g>
    </g>
</svg>
