<svg width="40px" class="php-logo-icon" viewBox="0 0 711.201 383.598" xml:space="preserve" xmlns="http://www.w3.org/2000/svg">
    <defs>
        <clipPath clipPathUnits="userSpaceOnUse" id="a">
            <path d="M11.52 162C11.52 81.677 135.307 16.561 288 16.561S564.481 81.677 564.481 162c0 80.322-123.788 145.439-276.481 145.439-152.693 0-276.48-65.117-276.48-145.439"/>
        </clipPath>
        <clipPath clipPathUnits="userSpaceOnUse" id="c">
            <path d="M0 324h576V0H0v324Z"/>
        </clipPath>
        <clipPath clipPathUnits="userSpaceOnUse" id="d">
            <path d="M0 324h576V0H0v324Z"/>
        </clipPath>
        <radialGradient cx="0" cy="0" fx="0" fy="0" gradientTransform="matrix(363.05789 0 0 -363.05789 177.52 256.307)" gradientUnits="userSpaceOnUse" id="b" r="1" spreadMethod="pad">
            <stop offset="0" style="stop-opacity:1;stop-color:#aeb2d5"/>
            <stop offset=".3" style="stop-opacity:1;stop-color:#aeb2d5"/>
            <stop offset=".75" style="stop-opacity:1;stop-color:#484c89"/>
            <stop offset="1" style="stop-opacity:1;stop-color:#484c89"/>
        </radialGradient>
    </defs>
    <g clip-path="url(#a)" transform="matrix(1.25 0 0 -1.25 -4.4 394.299)">
        <path d="M11.52 162C11.52 81.677 135.307 16.561 288 16.561S564.481 81.677 564.481 162c0 80.322-123.788 145.439-276.481 145.439-152.693 0-276.48-65.117-276.48-145.439" style="fill:url(#b);stroke:none"/>
    </g>
    <g clip-path="url(#c)" transform="matrix(1.25 0 0 -1.25 -4.4 394.299)">
        <path d="M0 0c146.729 0 265.68 60.281 265.68 134.641C265.68 209 146.729 269.282 0 269.282S-265.68 209-265.68 134.641C-265.68 60.281-146.729 0 0 0" style="fill:#777bb3;fill-opacity:1;fill-rule:nonzero;stroke:none" transform="translate(288 27.36)"/>
    </g>
    <g clip-path="url(#d)" transform="matrix(1.25 0 0 -1.25 -4.4 394.299)">
        <path d="M0 0c12.065 0 21.072 2.225 26.771 6.611 5.638 4.341 9.532 11.862 11.573 22.353 1.903 9.806 1.178 16.653-2.154 20.348C32.783 53.086 25.417 55 14.297 55H-4.984L-15.673 0H0Zm-63.063-67.75a2.998 2.998 0 0 0-2.944 3.572l28.328 145.751A3 3 0 0 0-34.734 84H26.32c19.188 0 33.47-5.21 42.447-15.487 9.025-10.331 11.812-24.772 8.283-42.921-1.436-7.394-3.906-14.261-7.341-20.409-3.439-6.155-7.984-11.85-13.511-16.93-6.616-6.192-14.104-10.682-22.236-13.324C25.959-27.678 15.681-29 3.414-29h-24.722l-7.06-36.322a3 3 0 0 0-2.944-2.428h-31.751z" style="fill:#eee;fill-opacity:1;fill-rule:nonzero;stroke:none" transform="translate(161.734 145.307)"/>
        <path d="M0 0c-.896 0-1.745.4-2.314 1.092a2.994 2.994 0 0 0-.631 2.48L9.586 68.061c1.192 6.133.898 10.535-.827 12.395C7.703 81.593 4.531 83.5-4.848 83.5H-27.55L-43.305 2.428A3 3 0 0 0-46.25 0h-31.5a2.998 2.998 0 0 0-2.945 3.572l28.328 145.751a3 3 0 0 0 2.945 2.427h31.5a3 3 0 0 0 2.945-3.572L-21.813 113H2.609c18.605 0 31.221-3.28 38.569-10.028 7.49-6.884 9.827-17.891 6.947-32.719L34.945 2.428A3 3 0 0 0 32 0H0Z" style="fill:#eee;fill-opacity:1;fill-rule:nonzero;stroke:none" transform="translate(311.583 116.307)"/>
        <path d="M0 0c12.065 0 21.072 2.225 26.771 6.611 5.638 4.34 9.532 11.861 11.574 22.353 1.903 9.806 1.178 16.653-2.155 20.348C32.783 53.086 25.417 55 14.297 55H-4.984L-15.673 0H0Zm-63.062-67.75a2.999 2.999 0 0 0-2.945 3.572l28.328 145.751A3.002 3.002 0 0 0-34.733 84H26.32c19.189 0 33.47-5.21 42.448-15.487 9.025-10.33 11.811-24.771 8.283-42.921-1.438-7.394-3.907-14.261-7.342-20.409-3.439-6.155-7.984-11.85-13.511-16.93-6.616-6.192-14.104-10.682-22.236-13.324C25.959-27.678 15.681-29 3.414-29h-24.723l-7.057-36.322a3.001 3.001 0 0 0-2.946-2.428h-31.75z" style="fill:#eee;fill-opacity:1;fill-rule:nonzero;stroke:none" transform="translate(409.55 145.307)"/>
    </g>
</svg>
